<?xml version="1.0" encoding="utf-8"?>
<!-- Generator: Adobe Illustrator 24.0.2, SVG Export Plug-In . SVG Version: 6.00 Build 0)  -->
<svg version="1.1" id="Layer_1" xmlns="http://www.w3.org/2000/svg" xmlns:xlink="http://www.w3.org/1999/xlink" x="0px" y="0px"
	 viewBox="0 0 500 500" enable-background="new 0 0 500 500" xml:space="preserve">
<g>
	<circle cx="250.526" cy="249.321" r="195.642"/>
	<circle fill="none" stroke="#EE4183" stroke-width="20" stroke-miterlimit="10" cx="250.526" cy="249.321" r="232.928"/>
	<g>
		<g>
			<g>
				<path fill="#FFFFFF" d="M101.214,189.145c0-3.46-0.496-6.019-1.488-7.682c-0.994-1.661-2.975-2.492-5.95-2.492H91.65v-2.036
					h27.843c13.744,0,24.139,2.918,31.19,8.749c7.049,5.835,10.574,13.975,10.574,24.418c0,6.715-1.488,12.633-4.463,17.754
					c-2.975,5.121-7.386,9.104-13.23,11.953c-5.846,2.849-12.949,4.274-21.308,4.274h-21.041V189.145z M136.123,236.809
					c4.214-2.476,7.528-5.969,9.937-10.48c2.407-4.51,3.614-9.782,3.614-15.819c0-5.902-1.188-11.123-3.561-15.669
					c-2.375-4.542-5.685-8.069-9.936-10.579c-4.252-2.51-9.07-3.765-14.452-3.765c-3.401,0-6.944,0.543-10.628,1.628V239.2
					c3.967,0.882,7.581,1.322,10.839,1.322C127.179,240.522,131.907,239.285,136.123,236.809z"/>
				<path fill="#FFFFFF" d="M222.045,241.896c-3.33-1.796-5.988-5.307-7.97-10.531l-2.658-6.612h-29.756l-8.5,19.33h-4.782
					l29.754-67.148h3.188l23.38,54.43c1.771,3.935,3.435,6.63,4.995,8.089c1.558,1.459,3.79,2.324,6.695,2.595v2.034
					c-1.275,0.339-2.694,0.508-4.25,0.508C228.74,244.591,225.373,243.693,222.045,241.896z M183.255,220.683h26.038l-12.754-29.504
					L183.255,220.683z"/>
				<path fill="#FFFFFF" d="M249.301,243.116c-1.311-0.644-2.249-1.814-2.815-3.511c-0.568-1.693-0.851-4.272-0.851-7.732v-54.938
					h9.564v54.938c0,3.46,0.496,6.021,1.488,7.682c0.992,1.663,2.977,2.494,5.952,2.494h2.126v2.034H255.2
					C252.578,244.083,250.612,243.762,249.301,243.116z"/>
				<path fill="#FFFFFF" d="M280.384,189.145c0-3.46-0.496-6.019-1.488-7.682c-0.994-1.661-2.975-2.492-5.95-2.492h-2.126v-2.036
					h9.564c2.62,0,4.587,0.323,5.898,0.966c1.311,0.646,2.249,1.816,2.817,3.511c0.566,1.695,0.849,4.272,0.849,7.732v50.868h37.726
					v4.07h-47.29V189.145z"/>
				<path fill="#FFFFFF" d="M348.609,216.309l-18.066-26.147c-1.843-2.508-3.401-4.477-4.676-5.9
					c-1.275-1.425-2.78-2.629-4.517-3.612c-1.736-0.983-3.807-1.544-6.216-1.679v-2.036h9.564c3.541,0,6.517,1.003,8.926,3.002
					c2.409,2.002,4.746,4.73,7.014,8.19l15.41,22.89l22.21-34.083h4.782l-24.868,38.661v28.487h-9.564V216.309z"/>
			</g>
		</g>
		<g>
			<path fill="#F05485" d="M64.078,331.318c8.5-6.793,16.138-14.584,22.134-21.835c3.621-4.379,6.768-9.153,9.591-14.067
				c2.973-5.175,5.947-10.471,8.17-16.015c1.385-3.455,2.301-7.072,2.823-10.751c0.539-3.805,0.972-7.845,0.797-11.693
				c-0.14-3.089-1.11-6.127-3.553-8.177c-0.76-0.629-1.775-1.184-2.925-1.412c-1.159-0.246-2.42-0.11-3.411,0.244
				c-2.004,0.74-3.121,1.904-4.094,2.943c-0.919,1.083-1.602,1.953-2.346,2.985c-1.457,1.988-2.765,4.07-3.927,6.214
				c-14.478,26.452-14.143,62.392-1.353,89.531c0.371,0.788,0.906,1.802,2.081,2.729c1.188,0.928,2.835,1.392,4.445,1.143
				c1.579-0.27,2.652-1.023,3.407-1.68c0.754-0.677,1.279-1.352,1.733-2.019c0.435-0.63,5.082-9.577,5.082-9.577
				c4.265-8.051,12.59-27.961,28.771-48.689c17.531-22.458,43.761-43.813,45.162-45.022c0.308-0.268,0.373-0.732,0.129-1.069
				c-0.259-0.36-0.764-0.443-1.128-0.187c-1.839,1.296-28.458,17.973-46.491,38.981c-19.466,22.678-31.325,48.173-33.388,52.564
				c0,0-3.228,7.918-3.74,7.92s-2.042-5.28-2.723-7.46c-2.687-8.714-4.924-15.744-5.652-24.624
				c-0.785-8.874-0.125-17.853,1.362-26.811c1.365-8.921,3.759-14.99,7.94-22.732c1.034-1.933,2.189-3.79,3.465-5.549
				c0.601-0.856,1.358-1.809,1.933-2.5c0.571-0.667,1.223-1.142,1.438-1.192c3.419-0.781,1.491,10.704,1.231,12.437
				c-0.898,5.993-2.718,11.852-5.398,17.302c-3.921,7.975-8.141,15.873-13.663,22.901c-5.64,7.198-11.458,13.898-18.597,20.061
				c-17.766,15.337-27.568,16.983-30.51,20.862S51.423,341.432,64.078,331.318z"/>
			<g>
				<path fill="#FFFFFF" d="M189.068,330.123c-3.33-1.796-5.988-5.307-7.97-10.531l-2.658-6.612h-29.756l-8.5,19.33h-4.782
					l29.754-67.148h3.188l23.38,54.43c1.771,3.935,3.435,6.63,4.995,8.089c1.558,1.459,3.79,2.324,6.695,2.595v2.034
					c-1.275,0.339-2.694,0.508-4.25,0.508C195.763,332.819,192.396,331.921,189.068,330.123z M150.278,308.911h26.038
					l-12.754-29.504L150.278,308.911z"/>
				<path fill="#FFFFFF" d="M219.141,278.898v53.413h-4.25v-54.938c0-3.257-0.727-5.765-2.178-7.528
					c-1.453-1.764-3.917-2.645-7.386-2.645h-1.064v-2.036h6.908c3.258,0,6.021,0.509,8.289,1.525
					c2.267,1.019,4.286,2.544,6.057,4.578l37.196,44.256v-50.36h4.25v68.165h-2.126L219.141,278.898z"/>
				<path fill="#FFFFFF" d="M291.776,331.344c-1.311-0.644-2.249-1.814-2.815-3.511c-0.568-1.693-0.851-4.272-0.851-7.732v-54.938
					h9.564v54.938c0,3.46,0.496,6.021,1.488,7.682c0.992,1.663,2.977,2.494,5.952,2.494h2.126v2.034h-9.566
					C295.053,332.31,293.087,331.989,291.776,331.344z"/>
				<path fill="#FFFFFF" d="M338.161,269.233h-9.564c-8.857,0-13.284,3.9-13.284,11.701h-2.124v-7.631
					c0-5.426,3.009-8.14,9.032-8.14h49.416v4.07h-23.91v63.078h-9.566V269.233z"/>
				<path fill="#FFFFFF" d="M407.661,304.536l-18.066-26.147c-1.843-2.508-3.401-4.477-4.676-5.9
					c-1.275-1.424-2.78-2.629-4.517-3.612s-3.807-1.544-6.216-1.679v-2.036h9.564c3.541,0,6.517,1.003,8.926,3.002
					c2.409,2.002,4.746,4.73,7.014,8.19l15.41,22.89l22.21-34.083h4.782l-24.868,38.661v28.487h-9.564V304.536z"/>
			</g>
		</g>
	</g>
	<g>
		<path fill="#FFFFFF" d="M118.191,137.345c-2.969-2.643-3.5-3.118-4.144-3.62c-0.683-0.539-1.121-0.657-1.814-0.148
			c-0.174,0.118-0.482,0.425-0.548,0.502c-0.152,0.171-0.259,0.214-0.334,0.146c-0.114-0.102-0.068-0.231,0.123-0.439
			c0.761-0.857,1.887-2.005,1.971-2.101c0.407-0.456,1.012-1.249,1.785-2.126c2.778-3.122,5.292-2.114,6.246-1.265
			c1.562,1.388,1.698,3.113,1.833,4.839c1.693-1.018,4.721-1.7,6.949,0.281c2.035,1.814,2.727,5.293-0.17,8.548
			c-0.187,0.209-0.768,0.785-1.279,1.32c-0.528,0.518-1.02,1.034-1.09,1.11c-0.542,0.609-1.008,1.25-1.603,1.917
			c-0.186,0.209-0.308,0.271-0.405,0.186c-0.058-0.051-0.097-0.157,0.123-0.404c0.135-0.153,0.235-0.302,0.349-0.508
			c0.262-0.449-0.107-0.915-0.593-1.483c-0.714-0.806-2.218-2.144-4.045-3.772L118.191,137.345z M119.968,136.194
			c0.133,0.119,0.203,0.114,0.327,0.053c0.121-0.096,0.484-0.388,1.11-1.093c0.947-1.067,1.146-1.367,1.046-2.172
			c-0.1-0.807-0.533-1.702-1.313-2.396c-1.579-1.407-3.9-2.209-5.561-0.345c-0.186,0.21-0.525,0.627-0.719,0.999
			c-0.112,0.204-0.107,0.313,0.007,0.415L119.968,136.194z M121.984,137.99c1.466,1.305,3.825,3.405,4.128,3.641
			c0.984,0.773,1.25,1.01,2.061,0.674c0.705-0.294,1.472-1.078,1.776-1.421c0.915-1.028,1.838-3.176-0.313-5.09
			c-1.141-1.016-3.137-2.109-5.452-1.541c-1.013,0.258-1.495,0.681-1.957,1.088c-0.259,0.213-1.105,1.165-1.361,1.451
			c-0.068,0.077-0.061,0.148,0.032,0.233L121.984,137.99z"/>
		<path fill="#FFFFFF" d="M130.255,124.517c-2.703-2.913-3.19-3.437-3.781-3.999c-0.625-0.6-1.053-0.76-1.79-0.319
			c-0.165,0.084-0.409,0.309-0.596,0.446c-0.145,0.103-0.276,0.188-0.346,0.113c-0.104-0.112-0.044-0.235,0.162-0.427
			c0.429-0.397,0.933-0.865,2.163-1.902c0.131-0.121,3.846-3.571,4.26-3.988c0.393-0.4,0.695-0.749,0.755-0.909
			c0.06-0.16,0.08-0.213,0.136-0.266c0.056-0.051,0.145,0.007,0.232,0.099c0.121,0.132,0.216,0.46,0.664,1.018
			c0.242,0.297,0.552,0.669,0.966,1.19c0.153,0.204,0.22,0.387,0.145,0.456c-0.112,0.103-0.237,0.045-0.375-0.104
			c-0.227-0.244-0.472-0.433-0.664-0.53c-0.53-0.308-1.097-0.131-1.988,0.557c-0.354,0.257-2.407,2.127-2.609,2.318
			c-0.077,0.068-0.061,0.16,0.06,0.291l4.784,5.155c0.121,0.13,0.192,0.17,0.284,0.083c0.244-0.226,2.539-2.357,2.935-2.793
			c0.472-0.506,0.661-0.787,0.642-1.185c-0.012-0.198-0.027-0.324,0.049-0.394c0.056-0.052,0.126-0.049,0.232,0.063
			c0.104,0.112,0.305,0.516,0.821,1.185c0.48,0.631,0.879,1.06,1.104,1.34c0.157,0.204,0.204,0.332,0.129,0.402
			c-0.111,0.104-0.269-0.029-0.407-0.179c-0.155-0.167-0.347-0.336-0.559-0.453c-0.336-0.211-0.804-0.264-1.545,0.284
			c-0.557,0.412-2.441,2.091-2.757,2.386c-0.094,0.087-0.078,0.176-0.01,0.252l1.524,1.644c0.589,0.634,2.584,2.819,2.964,3.193
			c0.749,0.731,1.243,1.039,1.882,0.791c0.441-0.163,0.978-0.594,1.708-1.271c0.56-0.519,1.158-1.11,1.524-1.727
			c0.424-0.742,0.266-1.324-0.33-2.266c-0.153-0.24-0.187-0.349-0.094-0.438c0.112-0.104,0.25,0.046,0.375,0.177
			c0.138,0.15,1.167,1.558,1.437,2.037c0.32,0.608,0.172,0.746-0.557,1.422c-1.383,1.282-2.035,1.817-2.78,2.475
			c-0.765,0.674-1.659,1.434-2.386,2.11c-0.45,0.415-0.828,0.906-1.332,1.339c-0.204,0.191-0.332,0.24-0.438,0.128
			c-0.051-0.056,0.007-0.181,0.102-0.303c0.17-0.192,0.281-0.296,0.378-0.454c0.305-0.458,0.305-0.944-0.957-2.38
			c-0.659-0.746-1.521-1.716-3.066-3.378L130.255,124.517z"/>
		<path fill="#FFFFFF" d="M146.36,116.3c-0.102,0.077-0.118,0.185-0.08,0.316l1.489,4.524c0.199,0.646,0.463,1.212,0.741,1.578
			c0.305,0.407,0.829,0.3,1.177,0.04c0.06-0.046,0.121-0.092,0.182-0.138c0.204-0.153,0.295-0.16,0.358-0.077
			c0.09,0.123-0.061,0.301-0.245,0.439c-0.489,0.366-1.349,0.92-1.572,1.087c-0.225,0.17-1.298,1.072-2.255,1.793
			c-0.266,0.198-0.417,0.25-0.509,0.129c-0.061-0.082,0.01-0.199,0.194-0.337c0.141-0.107,0.308-0.266,0.456-0.408
			c0.845-0.827,0.669-1.908,0.271-3.201l-4.886-16.121c-0.262-0.855-0.273-1.039-0.148-1.131c0.121-0.092,0.279-0.051,0.998,0.396
			c0.887,0.544,10.408,6.55,13.978,8.711c2.097,1.26,2.933,1.143,3.451,0.944c0.382-0.129,0.722-0.353,0.886-0.475
			c0.123-0.092,0.238-0.148,0.317-0.046c0.092,0.122-0.063,0.3-0.284,0.468c-0.307,0.23-1.793,1.347-3.228,2.364
			c-0.404,0.271-0.627,0.439-0.719,0.315c-0.063-0.08-0.031-0.167,0.034-0.249c0.092-0.132,0.077-0.408-0.29-0.641l-5.661-3.585
			c-0.102-0.051-0.174-0.06-0.274,0.016L146.36,116.3z M149.921,112.474c0.102-0.077,0.056-0.138-0.026-0.204l-6.068-4.042
			c-0.33-0.23-0.434-0.153-0.307,0.23l2.344,6.845c0.037,0.132,0.109,0.143,0.169,0.097L149.921,112.474z"/>
		<path fill="#FFFFFF" d="M160.398,105.435c1.846,3.17,3.347,4.124,4.818,4.476c1.669,0.382,2.774,0.003,4.031-0.729
			c1.342-0.783,2.291-2.191,2.531-3.601c0.281-1.845-0.545-3.87-1.867-6.136l-1.606-2.751c-2.001-3.434-2.362-4.05-2.817-4.73
			c-0.479-0.722-0.86-0.972-1.676-0.702c-0.203,0.058-0.591,0.254-0.789,0.37c-0.087,0.051-0.201,0.059-0.254-0.029
			c-0.077-0.133,0.009-0.24,0.255-0.382c0.99-0.577,2.24-1.217,2.371-1.294c0.155-0.089,1.15-0.758,1.807-1.145
			c0.242-0.141,0.376-0.162,0.455-0.029c0.051,0.088-0.012,0.182-0.099,0.235c-0.153,0.089-0.273,0.189-0.513,0.387
			c-0.518,0.479-0.487,0.933-0.083,1.729c0.368,0.731,0.727,1.347,2.728,4.781l1.374,2.355c1.386,2.378,2.662,5.173,1.812,7.761
			c-0.765,2.333-2.287,3.516-3.585,4.273c-0.748,0.437-3.023,1.645-5.445,1.082c-1.683-0.406-3.417-1.46-5.292-4.674l-1.873-3.213
			c-2-3.433-2.361-4.051-2.815-4.729c-0.48-0.722-0.862-0.973-1.678-0.703c-0.203,0.06-0.589,0.255-0.787,0.371
			c-0.089,0.051-0.203,0.058-0.254-0.03c-0.077-0.132,0.009-0.24,0.249-0.381c0.991-0.577,2.373-1.295,2.57-1.41
			c0.198-0.116,1.483-0.952,2.141-1.337c0.242-0.141,0.378-0.16,0.456-0.029c0.051,0.088-0.012,0.184-0.1,0.234
			c-0.155,0.089-0.273,0.189-0.511,0.387c-0.543,0.434-0.489,0.933-0.082,1.729c0.366,0.731,0.724,1.347,2.727,4.781
			L160.398,105.435z"/>
		<path fill="#FFFFFF" d="M183.898,94.232c0.983,2.239,1.788,4.082,2.335,5.01c0.364,0.646,0.731,1.098,1.472,0.884
			c0.346-0.096,0.881-0.274,1.092-0.366c0.138-0.061,0.216-0.012,0.247,0.058c0.053,0.117-0.036,0.238-0.291,0.351
			c-1.284,0.561-2.783,1.135-2.9,1.186c-0.116,0.052-1.555,0.766-2.253,1.073c-0.257,0.112-0.395,0.115-0.456-0.023
			c-0.029-0.071-0.014-0.161,0.128-0.222c0.208-0.092,0.468-0.261,0.657-0.4c0.426-0.297,0.317-0.863,0.114-1.579
			c-0.313-1.031-1.121-2.874-2.102-5.114l-4.323-9.866c-1.134,0.524-2.299,1.035-3.434,1.559c-1.436,0.657-1.925,1.066-2.051,1.789
			c-0.085,0.508-0.083,0.703-0.082,0.897c0.012,0.217-0.036,0.295-0.129,0.336c-0.072,0.031-0.148-0.019-0.209-0.158
			c-0.104-0.234-0.516-2.444-0.55-2.651c-0.014-0.161-0.055-0.505,0.041-0.546c0.162-0.072,0.497,0.06,1.148-0.169
			c0.707-0.227,1.613-0.568,1.894-0.691l8.746-3.833c0.748-0.328,1.264-0.609,1.606-0.843c0.329-0.2,0.508-0.362,0.601-0.403
			c0.118-0.051,0.179,0.089,0.24,0.23c0.307,0.7,0.942,2.339,1.054,2.596c0.09,0.209,0.061,0.334-0.031,0.375
			c-0.116,0.051-0.194,0.002-0.359-0.316c-0.041-0.093-0.097-0.152-0.136-0.245c-0.376-0.668-1.172-0.96-3.432-0.026
			c-0.99,0.406-1.969,0.835-2.962,1.242L183.898,94.232z"/>
		<path fill="#FFFFFF" d="M200.264,88.994c-0.404-1.313-0.812-1.775-1.346-2.382c-0.291-0.337-5.201-4.686-6.443-5.689
			c-0.884-0.714-1.683-1.134-2.209-1.291c-0.438-0.131-0.947-0.135-1.165-0.068c-0.123,0.037-0.261,0.027-0.296-0.095
			c-0.031-0.097,0.044-0.201,0.264-0.267c0.462-0.143,2.309-0.632,2.43-0.669c0.17-0.053,1.071-0.41,2.022-0.703
			c0.267-0.082,0.339-0.025,0.37,0.074c0.031,0.097-0.107,0.166-0.3,0.33c-0.164,0.157-0.24,0.341-0.182,0.535
			c0.09,0.292,0.303,0.547,0.613,0.853c0.603,0.584,6.189,5.74,6.843,6.31c0.148-1.165,1.598-7.445,1.838-8.398
			c0.158-0.61,0.128-1.053,0.032-1.369c-0.106-0.341-0.286-0.578-0.601-0.56c-0.24-0.005-0.402-0.01-0.439-0.131
			c-0.031-0.098,0.1-0.192,0.337-0.268c0.634-0.195,1.436-0.362,1.628-0.422c0.146-0.045,1.877-0.657,2.337-0.8
			c0.17-0.053,0.332-0.049,0.363,0.049c0.037,0.122-0.061,0.232-0.249,0.295c-0.269,0.083-0.702,0.322-1.017,0.686
			c-0.395,0.442-0.574,0.816-0.904,1.638c-0.504,1.221-2.151,7.99-2.265,9.171c-0.095,0.988,0.136,1.742,0.385,2.546l0.644,2.092
			c0.118,0.388,0.433,1.411,0.821,2.411c0.266,0.691,0.651,1.158,1.412,1.03c0.354-0.056,0.904-0.172,1.124-0.239
			c0.146-0.044,0.216,0.013,0.24,0.086c0.036,0.123-0.063,0.232-0.336,0.313c-1.337,0.412-2.892,0.812-3.015,0.849
			c-0.121,0.038-1.63,0.583-2.357,0.809c-0.269,0.083-0.405,0.071-0.45-0.076c-0.022-0.072,0.003-0.161,0.15-0.205
			c0.22-0.067,0.494-0.206,0.7-0.322c0.456-0.248,0.509-0.851,0.341-1.571c-0.242-1.045-0.555-2.066-0.676-2.456L200.264,88.994z"/>
		<path fill="#FFFFFF" d="M223.039,82.587c-0.126,0.018-0.191,0.106-0.223,0.238l-0.858,4.682c-0.136,0.663-0.175,1.286-0.109,1.739
			c0.073,0.505,0.586,0.663,1.013,0.6c0.077-0.01,0.153-0.021,0.228-0.033c0.25-0.037,0.336,0.003,0.349,0.103
			c0.024,0.152-0.198,0.235-0.424,0.269c-0.605,0.088-1.623,0.16-1.899,0.2c-0.279,0.04-1.655,0.318-2.839,0.491
			c-0.327,0.048-0.487,0.019-0.509-0.132c-0.015-0.101,0.104-0.17,0.332-0.204c0.175-0.026,0.4-0.083,0.596-0.138
			c1.138-0.322,1.504-1.352,1.773-2.679l3.439-16.487c0.181-0.875,0.259-1.042,0.409-1.064c0.153-0.02,0.271,0.09,0.69,0.828
			c0.518,0.902,5.993,10.735,8.088,14.342c1.233,2.111,2.025,2.407,2.575,2.481c0.397,0.072,0.804,0.039,1.007,0.009
			c0.15-0.022,0.281-0.015,0.3,0.111c0.02,0.152-0.199,0.236-0.477,0.276c-0.378,0.054-2.218,0.324-3.963,0.526
			c-0.484,0.044-0.76,0.085-0.782-0.066c-0.014-0.1,0.055-0.161,0.15-0.202c0.145-0.072,0.262-0.321,0.051-0.703l-3.248-5.859
			c-0.065-0.093-0.123-0.136-0.249-0.118L223.039,82.587z M227.998,80.936c0.126-0.018,0.114-0.094,0.075-0.191l-3.386-6.457
			c-0.182-0.359-0.308-0.341-0.378,0.056l-1.226,7.129c-0.031,0.134,0.026,0.176,0.1,0.166L227.998,80.936z"/>
		<path fill="#FFFFFF" d="M236.708,71.278c-0.424-1.346-0.761-1.724-1.427-1.97c-0.332-0.123-0.969-0.141-1.148-0.139
			c-0.128,0.001-0.23-0.024-0.232-0.175c-0.002-0.128,0.152-0.181,0.405-0.184c1.325-0.015,2.727,0.043,3.008,0.039
			c0.228-0.002,1.349-0.092,2.621-0.109c0.359-0.003,0.462,0.072,0.46,0.174c0.005,0.153-0.123,0.181-0.25,0.182
			c-0.203,0.002-0.686,0.007-0.991,0.164c-0.153,0.078-0.329,0.284-0.324,0.616c0.003,0.33,0.244,1.219,0.513,2.337
			c0.402,1.627,3.166,10.943,3.592,12.366l5.247-14.665c0.368-1.049,0.47-1.177,0.622-1.179c0.179-0.002,0.336,0.327,0.651,1.189
			l5.303,14.536c0.709-2.505,2.96-9.924,3.812-13.195c0.245-0.944,0.264-1.302,0.262-1.633c-0.007-0.459-0.291-0.76-1.463-0.747
			c-0.128,0.002-0.23-0.072-0.232-0.175c-0.002-0.126,0.124-0.18,0.431-0.184c1.298-0.015,2.369,0.048,2.599,0.044
			c0.177-0.002,1.272-0.092,2.063-0.1c0.23-0.003,0.359,0.046,0.358,0.148c0.005,0.127-0.072,0.204-0.227,0.206
			c-0.102,0.002-0.584,0.033-0.863,0.138c-0.76,0.29-1.155,1.365-1.623,2.773c-1.08,3.25-3.553,11.382-4.512,14.249
			c-0.642,1.892-0.765,2.199-1.044,2.202c-0.254,0.003-0.41-0.325-0.781-1.315l-5.193-14.179c-0.913,2.533-4.289,11.9-5.176,14.281
			c-0.395,1.075-0.569,1.357-0.824,1.361c-0.255,0.003-0.387-0.276-0.916-2.001L236.708,71.278z"/>
		<path fill="#FFFFFF" d="M267.022,81.176c-0.128-0.015-0.213,0.051-0.278,0.171l-2.052,4.295c-0.303,0.605-0.501,1.196-0.557,1.653
			c-0.06,0.504,0.393,0.79,0.824,0.841c0.077,0.009,0.15,0.019,0.228,0.027c0.252,0.031,0.324,0.09,0.31,0.191
			c-0.019,0.152-0.252,0.175-0.48,0.148c-0.606-0.073-1.608-0.269-1.885-0.301c-0.279-0.033-1.679-0.124-2.868-0.266
			c-0.329-0.039-0.473-0.108-0.456-0.26c0.012-0.101,0.143-0.137,0.373-0.11c0.177,0.022,0.407,0.024,0.611,0.023
			c1.182-0.013,1.802-0.914,2.408-2.125l7.615-15.02c0.404-0.799,0.523-0.938,0.673-0.92c0.153,0.018,0.24,0.157,0.45,0.977
			c0.264,1.007,2.989,11.925,4.072,15.953c0.642,2.36,1.327,2.852,1.839,3.067c0.364,0.172,0.768,0.246,0.969,0.27
			c0.152,0.017,0.274,0.058,0.261,0.186c-0.019,0.152-0.252,0.174-0.531,0.141c-0.38-0.045-2.224-0.266-3.963-0.524
			c-0.479-0.083-0.756-0.116-0.737-0.267c0.012-0.101,0.092-0.143,0.198-0.157c0.158-0.032,0.337-0.241,0.235-0.664l-1.611-6.502
			c-0.037-0.108-0.082-0.164-0.21-0.18L267.022,81.176z M272.239,80.874c0.126,0.016,0.136-0.06,0.121-0.164l-1.587-7.115
			c-0.082-0.395-0.208-0.41-0.378-0.045l-3.04,6.562c-0.068,0.121-0.022,0.177,0.055,0.186L272.239,80.874z"/>
		<path fill="#FFFFFF" d="M284.839,79.419c0.903-3.87,1.064-4.564,1.199-5.37c0.146-0.855,0.041-1.298-0.737-1.662
			c-0.186-0.096-0.603-0.219-0.826-0.271c-0.1-0.023-0.187-0.095-0.163-0.195c0.034-0.149,0.17-0.169,0.443-0.106
			c1.117,0.26,2.664,0.699,2.788,0.727c0.274,0.064,2.177,0.428,2.943,0.607c1.564,0.364,3.19,0.899,4.285,2.149
			c0.516,0.592,1.325,2.062,0.925,3.772c-0.426,1.836-1.621,3.493-4.336,5.033c1.429,3.078,2.602,5.679,3.684,7.554
			c1.008,1.725,2.011,2.246,2.609,2.49c0.453,0.184,0.802,0.266,0.949,0.3c0.126,0.029,0.208,0.127,0.191,0.201
			c-0.034,0.15-0.196,0.164-0.642,0.06l-1.761-0.41c-1.392-0.324-1.981-0.591-2.545-1.088c-0.935-0.82-1.521-2.237-2.5-4.427
			c-0.726-1.607-1.504-3.541-1.848-4.301c-0.077-0.123-0.141-0.189-0.288-0.225l-3.042-0.759c-0.124-0.03-0.189,0.033-0.218,0.158
			l-0.14,0.595c-0.555,2.382-1.01,4.341-1.129,5.412c-0.095,0.737-0.072,1.318,0.649,1.591c0.336,0.129,0.87,0.307,1.092,0.359
			c0.15,0.035,0.182,0.12,0.165,0.195c-0.029,0.124-0.172,0.169-0.441,0.107c-1.364-0.318-2.909-0.756-3.035-0.785
			c-0.026-0.007-1.604-0.296-2.35-0.47c-0.273-0.063-0.385-0.142-0.349-0.29c0.017-0.075,0.083-0.138,0.23-0.104
			c0.225,0.053,0.533,0.072,0.768,0.075c0.521,0.015,0.772-0.502,1.037-1.197c0.368-1.013,0.824-2.974,1.378-5.355L284.839,79.419z
			 M286.321,82.04c-0.027,0.124-0.002,0.235,0.106,0.339c0.32,0.308,1.42,0.748,2.51,1.002c0.596,0.14,1.31,0.226,1.972-0.038
			c1.007-0.392,1.964-1.582,2.403-3.468c0.724-3.101-0.482-5.343-3.137-5.961c-0.743-0.173-1.431-0.255-1.696-0.238
			c-0.135,0.021-0.233,0.102-0.267,0.252L286.321,82.04z"/>
		<path fill="#FFFFFF" d="M304.296,84.464c1.381-3.727,1.632-4.396,1.865-5.178c0.255-0.829,0.278-1.257-0.448-1.715
			c-0.175-0.121-0.572-0.295-0.787-0.375c-0.167-0.061-0.244-0.145-0.209-0.241c0.053-0.142,0.191-0.147,0.455-0.049
			c1.073,0.399,2.551,1.029,2.672,1.073c0.284,0.106,1.817,0.594,3.251,1.126c2.362,0.877,6.816,2.285,8.567,6.278
			c0.732,1.686,1.121,4.085,0.066,6.927c-1.119,3.011-3.221,4.867-5.081,5.779c-1.426,0.695-4.197,1.569-8.257,0.061
			c-1.029-0.382-2.269-0.923-3.267-1.376c-1.025-0.462-1.81-0.835-1.931-0.879c-0.048-0.017-0.453-0.168-0.964-0.33
			c-0.479-0.177-1.046-0.334-1.403-0.467c-0.264-0.097-0.364-0.189-0.31-0.332c0.027-0.072,0.1-0.126,0.291-0.056
			c0.271,0.075,0.472,0.122,0.703,0.153c0.514,0.083,0.829-0.4,1.18-1.056c0.492-0.96,1.192-2.847,2.044-5.14L304.296,84.464z
			 M305.345,87.788c-0.94,2.531-1.734,4.738-1.877,5.201c-0.198,0.605-0.506,1.579-0.412,1.912c0.143,0.571,0.887,1.418,3.706,2.464
			c2.223,0.824,4.578,0.775,6.511-0.112c1.693-0.758,3.214-2.803,4.028-5c1.126-3.035,0.54-5.481-0.058-6.871
			c-1.368-3.199-3.965-4.544-6.809-5.598c-0.479-0.178-1.388-0.434-1.616-0.41c-0.249,0.015-0.364,0.108-0.462,0.37
			c-0.325,0.804-1.23,3.241-1.911,5.081L305.345,87.788z"/>
		<path fill="#FFFFFF" d="M320.018,103.219c-0.237-0.322-0.213-0.423,0.099-1.037c0.579-1.135,1.131-1.998,1.339-2.349
			c0.15-0.238,0.254-0.329,0.368-0.271c0.136,0.07,0.123,0.148,0.031,0.33c-0.104,0.204-0.266,0.522-0.359,0.875
			c-0.514,1.853,0.659,3.252,2.182,4.026c2.18,1.11,4.045,0.087,4.784-1.366c0.797-1.567,0.601-2.812-0.53-5.418l-0.594-1.361
			c-1.402-3.2-1.23-4.886-0.445-6.431c1.238-2.429,3.897-3.161,6.782-1.694c0.886,0.45,1.497,0.876,1.998,1.302
			c0.385,0.31,0.554,0.425,0.736,0.518c0.182,0.093,0.204,0.162,0.146,0.274c-0.058,0.114-0.531,0.818-1.318,2.362
			c-0.184,0.363-0.31,0.497-0.422,0.44c-0.136-0.069-0.102-0.194-0.032-0.387c0.116-0.284,0.291-0.967,0.283-1.286
			c-0.01-0.319-0.136-1.584-2.224-2.648c-1.567-0.799-3.292-0.445-4.134,1.213c-0.661,1.294-0.487,2.412,0.828,5.225l0.38,0.823
			c1.606,3.476,1.524,5.208,0.6,7.025c-0.473,0.931-1.715,2.472-3.849,2.787c-1.323,0.184-2.688-0.167-3.914-0.792
			C321.682,104.837,320.718,104.147,320.018,103.219z"/>
		<path fill="#FFFFFF" d="M337.702,113.254c-0.146-0.102-0.204-0.33-0.089-0.497c0.118-0.167,0.456-0.209,0.726-0.24
			c6.772-0.807,11.897-1.523,14.692-5.536c2.081-2.99,0.77-5.207-0.63-6.183c-1.003-0.699-1.792-0.906-2.79-0.764
			c-0.838,0.131-1.598,0.688-2.165,1.504c-0.131,0.187-0.283,0.27-0.387,0.196c-0.083-0.057-0.087-0.186,0.024-0.387
			c0.109-0.204,1.213-2.011,1.662-2.659c0.089-0.126,0.155-0.175,0.429-0.169c1.022,0.184,2.497,0.651,4.19,1.832
			c3.156,2.198,3.325,5.298,1.783,7.514c-3.015,4.326-10.391,4.932-14.526,5.342c-0.162,0.011-0.163,0.103-0.061,0.176l1.528,1.063
			c0.356,0.248,2.836,1.943,3.646,2.384c1.628,0.916,2.734,0.756,3.865-0.289c0.204-0.2,0.324-0.239,0.45-0.152
			c0.104,0.072,0.036,0.213-0.049,0.337c-0.278,0.398-1.875,1.799-2.579,2.365c-0.56,0.448-0.932,0.313-1.81-0.299
			C341.267,115.8,338.539,113.837,337.702,113.254z"/>
		<path fill="#FFFFFF" d="M354.075,126.006c-3.095-2.614-1.546-7.646,1.397-11.129c3.98-4.711,8.637-6.549,11.808-3.868
			c3.641,3.075,0.777,8.596-1.378,11.146C362.119,126.631,357.306,128.736,354.075,126.006z M366.299,111.382
			c-1.85-1.564-5.161,0.143-8.499,4.094c-2.877,3.406-5.159,8.082-2.728,10.137c1.792,1.514,5.229-0.186,8.468-4.02
			C366.663,117.897,368.537,113.271,366.299,111.382z"/>
		<path fill="#FFFFFF" d="M360.906,131.334c-0.126-0.128-0.141-0.362,0.005-0.505c0.145-0.143,0.487-0.123,0.756-0.103
			c6.813,0.44,11.982,0.671,15.463-2.768c2.594-2.561,1.71-4.982,0.509-6.197c-0.858-0.87-1.598-1.218-2.606-1.26
			c-0.846-0.024-1.696,0.387-2.403,1.085c-0.164,0.16-0.327,0.214-0.416,0.124c-0.072-0.074-0.053-0.199,0.092-0.378
			c0.146-0.181,1.56-1.758,2.122-2.313c0.111-0.107,0.184-0.143,0.453-0.087c0.971,0.366,2.335,1.096,3.786,2.565
			c2.706,2.739,2.306,5.818,0.383,7.717c-3.754,3.707-11.122,2.957-15.264,2.607c-0.162-0.019-0.181,0.071-0.092,0.161l1.308,1.325
			c0.305,0.308,2.436,2.43,3.151,3.011c1.437,1.199,2.553,1.242,3.858,0.422c0.233-0.162,0.361-0.179,0.468-0.07
			c0.089,0.09-0.003,0.216-0.109,0.324c-0.346,0.341-2.173,1.428-2.97,1.855c-0.632,0.339-0.974,0.139-1.727-0.623
			C363.95,134.49,361.625,132.059,360.906,131.334z"/>
		<path fill="#FFFFFF" d="M385.206,133.745c0.388-0.329,0.589-0.565,0.375-0.819c-0.41-0.485-2.119-1.276-2.202-1.374
			c-0.048-0.057-0.129-0.19-0.051-0.256c0.058-0.049,0.186-0.058,0.31-0.029c1.891,0.535,2.965,0.893,4.854,1.427
			c0.266,0.076,0.514,0.134,0.628,0.269c0.133,0.156-0.082,0.336-0.276,0.502c-0.058,0.049-4.314,3.46-8.742,7.217
			c-1.942,1.649-3.636,3.156-4.444,3.939c-0.569,0.55-0.783,0.966-0.298,1.655c0.179,0.25,0.291,0.422,0.387,0.574
			c0.146,0.211,0.187,0.376,0.07,0.477c-0.097,0.082-0.218,0.018-0.417-0.216c-1.237-1.456-1.737-2.166-1.819-2.264
			c-0.085-0.097-1.03-1.096-2.086-2.339c-0.181-0.214-0.242-0.364-0.145-0.445c0.077-0.066,0.221-0.055,0.388,0.14
			c0.262,0.312,0.482,0.492,0.683,0.689c0.668,0.669,1.131,0.544,1.938-0.04c0.904-0.668,2.514-2.035,4.457-3.683L385.206,133.745z"
			/>
	</g>
</g>
</svg>
